<svg width="1440" height="1162" viewBox="0 0 1440 1162" fill="none" xmlns="http://www.w3.org/2000/svg">
<g clip-path="url(#clip0_1876_9259)">
<g clip-path="url(#clip1_1876_9259)">
<g clip-path="url(#clip2_1876_9259)">
<rect y="92" width="1440" height="1160" fill="#0D100D"/>
<g opacity="0.5">
<g clip-path="url(#clip3_1876_9259)">
<path d="M1526.58 908.708H-87.084V910.859H1526.58V908.708Z" fill="#B3B3B3"/>
<path d="M1526.58 856.721H-87.084V858.872H1526.58V856.721Z" fill="#B3B3B3"/>
<path d="M1526.58 804.733H-87.084V806.885H1526.58V804.733Z" fill="#B3B3B3"/>
<path d="M1526.58 752.746H-87.084V754.898H1526.58V752.746Z" fill="#B3B3B3"/>
<path d="M1526.58 700.758H-87.084V702.91H1526.58V700.758Z" fill="#B3B3B3"/>
<path d="M1526.58 648.771H-87.084V650.923H1526.58V648.771Z" fill="#B3B3B3"/>
<path d="M1526.58 596.784H-87.084V598.936H1526.58V596.784Z" fill="#B3B3B3"/>
<path d="M1526.58 544.797H-87.084V546.949H1526.58V544.797Z" fill="#B3B3B3"/>
<path d="M1526.58 492.81H-87.084V494.961H1526.58V492.81Z" fill="#B3B3B3"/>
<path d="M1526.58 440.822H-87.084V442.974H1526.58V440.822Z" fill="#B3B3B3"/>
<path d="M1526.58 388.835H-87.084V390.987H1526.58V388.835Z" fill="#B3B3B3"/>
<path d="M1526.58 336.848H-87.084V338.999H1526.58V336.848Z" fill="#B3B3B3"/>
<path d="M1526.58 284.86H-87.084V287.012H1526.58V284.86Z" fill="#B3B3B3"/>
<path d="M1526.58 232.874H-87.084V235.025H1526.58V232.874Z" fill="#B3B3B3"/>
<path d="M1526.58 180.886H-87.084V183.038H1526.58V180.886Z" fill="#B3B3B3"/>
<path d="M1526.58 128.898H-87.084V131.05H1526.58V128.898Z" fill="#B3B3B3"/>
<path d="M1526.58 76.9116H-87.084V79.0634H1526.58V76.9116Z" fill="#B3B3B3"/>
<path d="M1429.83 26H1427.74V1065.75H1429.83V26Z" fill="#B3B3B3"/>
<path d="M1380.93 26H1378.84V1065.75H1380.93V26Z" fill="#B3B3B3"/>
<path d="M1332.03 26H1329.94V1065.75H1332.03V26Z" fill="#B3B3B3"/>
<path d="M1283.13 26H1281.04V1065.75H1283.13V26Z" fill="#B3B3B3"/>
<path d="M1234.24 26H1232.15V1065.75H1234.24V26Z" fill="#B3B3B3"/>
<path d="M1185.34 26H1183.25V1065.75H1185.34V26Z" fill="#B3B3B3"/>
<path d="M1136.43 26H1134.34V1065.75H1136.43V26Z" fill="#B3B3B3"/>
<path d="M1087.54 26H1085.45V1065.75H1087.54V26Z" fill="#B3B3B3"/>
<path d="M1038.64 26H1036.55V1065.75H1038.64V26Z" fill="#B3B3B3"/>
<path d="M989.738 26H987.648V1065.75H989.738V26Z" fill="#B3B3B3"/>
<path d="M940.84 26H938.75V1065.75H940.84V26Z" fill="#B3B3B3"/>
<path d="M891.942 26H889.853V1065.75H891.942V26Z" fill="#B3B3B3"/>
<path d="M843.042 26H840.952V1065.75H843.042V26Z" fill="#B3B3B3"/>
<path d="M794.146 26H792.056V1065.75H794.146V26Z" fill="#B3B3B3"/>
<path d="M745.246 26H743.156V1065.75H745.246V26Z" fill="#B3B3B3"/>
<path d="M696.348 26H694.258V1065.75H696.348V26Z" fill="#B3B3B3"/>
<path d="M647.449 26H645.359V1065.75H647.449V26Z" fill="#B3B3B3"/>
<path d="M598.55 26H596.46V1065.75H598.55V26Z" fill="#B3B3B3"/>
<path d="M549.648 26H547.558V1065.75H549.648V26Z" fill="#B3B3B3"/>
<path d="M500.748 26H498.658V1065.75H500.748V26Z" fill="#B3B3B3"/>
<path d="M451.851 26H449.761V1065.75H451.851V26Z" fill="#B3B3B3"/>
<path d="M402.951 26H400.861V1065.75H402.951V26Z" fill="#B3B3B3"/>
<path d="M354.053 26H351.963V1065.75H354.053V26Z" fill="#B3B3B3"/>
<path d="M305.154 26H303.064V1065.75H305.154V26Z" fill="#B3B3B3"/>
<path d="M256.256 26H254.166V1065.75H256.256V26Z" fill="#B3B3B3"/>
<path d="M207.358 26H205.268V1065.75H207.358V26Z" fill="#B3B3B3"/>
<path d="M158.459 26H156.369V1065.75H158.459V26Z" fill="#B3B3B3"/>
<path d="M109.56 26H107.47V1065.75H109.56V26Z" fill="#B3B3B3"/>
<path d="M60.6573 26H58.5674V1065.75H60.6573V26Z" fill="#B3B3B3"/>
<path d="M11.7579 26H9.66797V1065.75H11.7579V26Z" fill="#B3B3B3"/>
</g>
</g>
<rect y="-207" width="1440" height="1458.8" fill="url(#paint0_radial_1876_9259)"/>
<g opacity="0.3" filter="url(#filter0_f_1876_9259)">
<circle cx="1039" cy="638" r="163.5" fill="#82D9DB"/>
</g>
<g opacity="0.3" filter="url(#filter1_f_1876_9259)">
<circle cx="385.5" cy="636.5" r="155.5" fill="#14B1FF"/>
</g>
<g opacity="0.4" filter="url(#filter2_f_1876_9259)">
<circle cx="723" cy="641" r="180" fill="#C15287"/>
</g>
</g>
</g>
</g>
<defs>
<filter id="filter0_f_1876_9259" x="635.5" y="234.5" width="807" height="807" filterUnits="userSpaceOnUse" color-interpolation-filters="sRGB">
<feFlood flood-opacity="0" result="BackgroundImageFix"/>
<feBlend mode="normal" in="SourceGraphic" in2="BackgroundImageFix" result="shape"/>
<feGaussianBlur stdDeviation="120" result="effect1_foregroundBlur_1876_9259"/>
</filter>
<filter id="filter1_f_1876_9259" x="-10" y="241" width="791" height="791" filterUnits="userSpaceOnUse" color-interpolation-filters="sRGB">
<feFlood flood-opacity="0" result="BackgroundImageFix"/>
<feBlend mode="normal" in="SourceGraphic" in2="BackgroundImageFix" result="shape"/>
<feGaussianBlur stdDeviation="120" result="effect1_foregroundBlur_1876_9259"/>
</filter>
<filter id="filter2_f_1876_9259" x="303" y="221" width="840" height="840" filterUnits="userSpaceOnUse" color-interpolation-filters="sRGB">
<feFlood flood-opacity="0" result="BackgroundImageFix"/>
<feBlend mode="normal" in="SourceGraphic" in2="BackgroundImageFix" result="shape"/>
<feGaussianBlur stdDeviation="120" result="effect1_foregroundBlur_1876_9259"/>
</filter>
<radialGradient id="paint0_radial_1876_9259" cx="0" cy="0" r="1" gradientUnits="userSpaceOnUse" gradientTransform="translate(720 523.062) rotate(90) scale(530.438 302.883)">
<stop stop-color="#0D100D" stop-opacity="0"/>
<stop offset="0.445638" stop-color="#0D100D" stop-opacity="0.8"/>
<stop offset="0.819479" stop-color="#0D100D"/>
</radialGradient>
<clipPath id="clip0_1876_9259">
<rect width="1440" height="1162" fill="white"/>
</clipPath>
<clipPath id="clip1_1876_9259">
<rect width="1440" height="1162" fill="white"/>
</clipPath>
<clipPath id="clip2_1876_9259">
<rect width="1440" height="1160" fill="white" transform="translate(0 12)"/>
</clipPath>
<clipPath id="clip3_1876_9259">
<rect y="-197.343" width="1440" height="1144.34" fill="white"/>
</clipPath>
</defs>
</svg>
