<svg width="20" height="21" viewBox="0 0 20 21" fill="none" xmlns="http://www.w3.org/2000/svg">
<g id="link-external-02">
<path id="Icon" d="M17.5 8.19996L17.5 3.19996M17.5 3.19996H12.5M17.5 3.19996L10 10.7M8.33333 3.19995H6.5C5.09987 3.19995 4.3998 3.19995 3.86502 3.47243C3.39462 3.71212 3.01217 4.09457 2.77248 4.56497C2.5 5.09975 2.5 5.79982 2.5 7.19995V14.2C2.5 15.6001 2.5 16.3001 2.77248 16.8349C3.01217 17.3053 3.39462 17.6878 3.86502 17.9275C4.3998 18.2 5.09987 18.2 6.5 18.2H13.5C14.9001 18.2 15.6002 18.2 16.135 17.9275C16.6054 17.6878 16.9878 17.3053 17.2275 16.8349C17.5 16.3001 17.5 15.6001 17.5 14.2V12.3666" stroke="white" stroke-width="1.66667" stroke-linecap="round" stroke-linejoin="round"/>
</g>
</svg>
