<svg width="32" height="48" viewBox="0 0 32 48" fill="none" xmlns="http://www.w3.org/2000/svg">
<g id="Group 1000001883">
<path id="B" d="M31.1802 8.72727V21.7309C31.1802 24.6109 29.4598 26.0945 26.1201 26.0945C29.4598 26.0945 31.1802 27.6655 31.1802 30.4582V39.2727C31.1802 44.9455 27.6381 48 21.0599 48H3.34941C1.73016 48 0.819336 47.2145 0.819336 45.8182V2.18182C0.819336 0.785455 1.73016 0 3.34941 0H21.0599C27.6381 0 31.1802 3.05454 31.1802 8.72727Z" fill="white"/>
<path id="Subtract" fill-rule="evenodd" clip-rule="evenodd" d="M31.1802 21.7309V8.72727C31.1802 8.34396 31.1641 7.97261 31.1319 7.61334C29.7671 7.63115 28.4404 8.1268 27.1833 9.08496C26.013 9.97694 24.8916 10.9333 23.7795 11.8818C23.2884 12.3006 22.7991 12.7179 22.3082 13.1274C22.4407 13.2826 22.5635 13.4242 22.6789 13.5573L22.6795 13.558L22.6797 13.5583L22.6805 13.5591L22.6808 13.5595C22.9169 13.8318 23.1223 14.0686 23.3173 14.3136C25.5942 18.3139 25.537 20.7543 20.7579 21.898C19.3649 22.355 17.945 22.796 16.5025 23.0183C15.3771 23.1916 14.2327 23.2412 13.0901 23.2908L13.09 23.2908L13.0899 23.2908L13.0898 23.2908L13.0896 23.2908C12.5926 23.3124 12.0959 23.3339 11.6013 23.3656C11.8174 24.7839 11.3637 25.9916 10.5177 27.0848C9.36015 28.5806 9.54093 30.2657 9.74067 32.0767C9.84376 31.998 9.93322 31.9291 10.0141 31.8669L10.0142 31.8669C10.1624 31.7527 10.2817 31.6609 10.4028 31.5715C10.6461 31.3914 10.8888 31.2103 11.1314 31.0292L11.1315 31.0291L11.1316 31.0291L11.1317 31.029L11.1324 31.0285L11.1324 31.0285L11.1324 31.0285L11.1325 31.0284C11.7755 30.5485 12.4185 30.0685 13.0751 29.6082C13.5877 29.249 14.0706 29.2795 14.3527 29.7884C14.681 30.3805 15.1159 30.5629 15.728 30.5273C15.786 30.524 15.845 30.5399 15.9042 30.5559C15.9345 30.5641 15.9648 30.5723 15.995 30.5779C17.9209 30.9392 19.7865 31.5092 21.5134 32.4303C21.7867 32.5761 22.0697 32.6978 22.3531 32.8196C22.9222 33.0643 23.493 33.3098 23.9909 33.7529C26.3706 35.8714 28.2316 38.3924 29.888 41.0729C30.1618 41.5161 30.4534 41.941 30.7622 42.3489C31.0396 41.4298 31.1802 40.4033 31.1802 39.2727V30.4582C31.1802 27.6655 29.4598 26.0945 26.1201 26.0945C29.4598 26.0945 31.1802 24.6109 31.1802 21.7309ZM30.3356 43.4607C30.1226 43.2075 29.908 42.953 29.6892 42.6987L23.9015 35.7668C23.6001 35.3055 23.2957 35.006 22.7007 35.0939C22.5319 35.1187 22.3436 35.0509 22.1655 34.9867L22.1646 34.9864L22.1633 34.9859C22.1308 34.9742 22.0986 34.9626 22.0669 34.9517C20.5544 34.4332 19.0433 33.9107 17.5247 33.3857L17.5232 33.3851L17.5111 33.3809L17.5106 33.3808L16.2938 32.9601C16.302 32.9906 16.3086 33.0224 16.3153 33.0546C16.33 33.1248 16.345 33.1967 16.377 33.26C16.5952 33.6905 16.8181 34.1188 17.0411 34.5471L17.0415 34.5479L17.0416 34.548L17.0419 34.5486L17.0419 34.5487L17.0421 34.549C17.497 35.423 17.952 36.2969 18.3664 37.1897C19.073 38.7123 19.6312 40.287 19.8402 41.9756C19.9193 42.6144 20.0636 43.3013 20.3852 43.8439C21.198 45.2154 22.0323 46.5765 22.9029 47.9127C26.5999 47.5458 29.1174 46.0274 30.3356 43.4607ZM21.4059 47.9971C20.5644 46.6653 19.8265 45.272 19.247 43.7673C17.3617 40.2956 16.4286 38.1226 14.8187 34.1421L14.7971 34.0603C14.7088 33.7252 14.6662 33.5634 14.5636 33.4626C14.4679 33.3686 14.3199 33.3276 14.0337 33.2485L14.0335 33.2485L14.031 33.2478C13.9716 33.2314 13.9062 33.2133 13.8342 33.1928C12.7259 32.8769 12.1229 33.2209 11.5321 34.1778C11.0304 34.9905 10.4205 35.7364 9.80525 36.4889L9.80509 36.4891C9.53775 36.816 9.2694 37.1442 9.00847 37.4797L14.6529 45.2477L14.7333 45.3583L16.6527 48H21.0599C21.1762 48 21.2916 47.999 21.4059 47.9971ZM14.5089 48C13.1633 45.9381 11.8184 43.8757 10.4867 41.8048C9.93761 40.951 9.41369 40.081 8.88715 39.2067L8.88707 39.2065C8.64727 38.8083 8.40693 38.4093 8.16342 38.0104C7.55366 36.7845 7.28974 36.0889 7.14677 34.8142C6.51015 34.1274 6.35862 33.2787 6.44513 32.3632C6.42416 32.3666 6.40615 32.3688 6.39037 32.3706C6.36069 32.3742 6.33884 32.3768 6.31983 32.3854L6.31484 32.3876C6.2673 32.4089 6.21666 32.4315 6.18027 32.4668C4.69696 33.9066 3.25252 35.3579 2.68798 37.4593C2.38177 38.5992 1.91527 38.9605 0.819336 39.07V45.8182C0.819336 47.2145 1.73016 48 3.34941 48H14.5089ZM0.819336 25.4026V2.18182C0.819336 0.785455 1.73016 0 3.34941 0H21.0599C24.5787 0 27.2288 0.874009 28.9326 2.55524C27.5485 2.62166 26.1609 2.62395 24.7713 2.60481C22.9255 2.57922 21.6241 3.60606 20.5605 4.95588C19.1889 6.69617 18.3472 8.66865 18.2859 10.9451C16.3487 10.5948 14.4354 10.6282 12.6015 11.2196C10.5856 11.8697 8.81463 12.9539 7.92528 15.0105C7.34304 16.3566 7.28489 17.7555 7.91824 19.1267C8.06733 19.4496 8.22652 19.768 8.38202 20.079C8.45105 20.2171 8.51935 20.3537 8.58571 20.4886C7.20342 20.4107 5.80585 20.826 4.50802 21.5352C2.88004 22.4246 1.50563 23.7386 0.819336 25.4026ZM29.9075 3.76322C28.3846 3.77853 26.853 3.599 25.3336 3.4209L25.3318 3.42069L25.0777 3.39093C23.8535 3.24791 22.8175 3.60562 21.9787 4.41394C20.1634 6.16289 19.3979 8.37745 19.3723 10.8648C19.3703 11.0702 19.4665 11.372 19.6183 11.4668C20.114 11.7765 20.6295 12.0545 21.1513 12.3358L21.1519 12.3362L21.1525 12.3365C21.3401 12.4377 21.5285 12.5392 21.717 12.6429C21.8279 12.5272 21.9339 12.4139 22.0377 12.303L22.0378 12.3029L22.0383 12.3024L22.0386 12.302C22.2602 12.0653 22.4709 11.8402 22.6941 11.6282C23.0472 11.2928 23.3973 10.9535 23.7473 10.6142L23.7475 10.614C24.6619 9.72792 25.5763 8.84164 26.547 8.02214C27.8299 6.93919 29.2945 6.27671 30.888 6.11366C30.6753 5.23967 30.3475 4.45531 29.9075 3.76322Z" fill="url(#paint0_linear_1458_316)"/>
<ellipse id="Ellipse 10325" cx="18.7139" cy="16.0005" rx="1.29595" ry="1.29595" fill="#0064D3"/>
</g>
<defs>
<linearGradient id="paint0_linear_1458_316" x1="11.1253" y1="16.1988" x2="47.6377" y2="39.4607" gradientUnits="userSpaceOnUse">
<stop stop-color="#0064D3"/>
<stop offset="1" stop-color="#01F1D4"/>
</linearGradient>
</defs>
</svg>
